HIERARCHY
ROOT Hips
{
	OFFSET 0.00000 0.00000 0.00000
	CHANNELS 6 Xposition Yposition Zposition Zrotation Yrotation Xrotation 
	JOINT LHipJoint
	{
		OFFSET 0 0 0
		CHANNELS 3 Zrotation Yrotation Xrotation
		JOINT LeftHip
		{
			OFFSET 1.58895 -1.83665 0.71753
			CHANNELS 3 Zrotation Yrotation Xrotation
			JOINT LeftKnee
			{
				OFFSET 2.50528 -6.88321 0.00000
				CHANNELS 3 Zrotation Yrotation Xrotation
				JOINT LeftAnkle
				{
					OFFSET 2.63244 -7.23257 0.00000
					CHANNELS 3 Zrotation Yrotation Xrotation
					JOINT LeftToe
					{
						OFFSET 0.23691 -0.65090 1.72750
						CHANNELS 3 Zrotation Yrotation Xrotation
						End Site
						{
							OFFSET 0.00000 -0.00000 0.92561
						}
					}
				}
			}
		}
	}
	JOINT RHipJoint
	{
		OFFSET 0 0 0
		CHANNELS 3 Zrotation Yrotation Xrotation
		JOINT RightHip
		{
			OFFSET -1.51435 -1.83665 0.71753
			CHANNELS 3 Zrotation Yrotation Xrotation
			JOINT RightKnee
			{
				OFFSET -2.54551 -6.99375 0.00000
				CHANNELS 3 Zrotation Yrotation Xrotation
				JOINT RightAnkle
				{
					OFFSET -2.66027 -7.30903 0.00000
					CHANNELS 3 Zrotation Yrotation Xrotation
					JOINT RightToe
					{
						OFFSET -0.22981 -0.63138 2.03959
						CHANNELS 3 Zrotation Yrotation Xrotation
						End Site
						{
							OFFSET -0.00000 -0.00000 1.07060
						}
					}
				}
			}
		}
	}
	JOINT lowerback
	{
		OFFSET 0 0 0
		CHANNELS 3 Zrotation Yrotation Xrotation
		JOINT Chest
		{
			OFFSET -0.02651 1.86275 -0.11152
			CHANNELS 3 Zrotation Yrotation Xrotation
			JOINT Chest2
			{
				OFFSET 0.01019 1.86224 0.04087
				CHANNELS 3 Zrotation Yrotation Xrotation
				JOINT lowerneck
				{
					OFFSET 0 0 0
					CHANNELS 3 Zrotation Yrotation Xrotation
					JOINT Neck
					{
						OFFSET -0.01926 1.80512 0.08867
						CHANNELS 3 Zrotation Yrotation Xrotation
						JOINT Head
						{
							OFFSET 0.05516 1.76451 -0.38475
							CHANNELS 3 Zrotation Yrotation Xrotation
							End Site
							{
								OFFSET 0.01592 1.82587 -0.14001
							}
						}
					}
				}
				JOINT LeftCollar
				{
					OFFSET 0 0 0
					CHANNELS 3 Zrotation Yrotation Xrotation
					JOINT LeftShoulder
					{
						OFFSET 3.47116 1.51376 0.14491
CHANNELS 3 Zrotation Xrotation Yrotation
						JOINT LeftElbow
						{
OFFSET 0 -4.780950 0.000000
CHANNELS 3 Zrotation Xrotation Yrotation
							JOINT LeftWrist
							{
OFFSET 0 -3.586150 -0.000000
CHANNELS 3 Zrotation Xrotation Yrotation
								JOINT lhand
								{
									OFFSET 0 0 0
CHANNELS 3 Zrotation Xrotation Yrotation
									JOINT LFingers
									{
OFFSET 0 -0.659810 0.000000
CHANNELS 3 Zrotation Xrotation Yrotation
										End Site
										{
OFFSET 0 -0.531960 0.000000
										}
									}
								}
								JOINT LThumb
								{
OFFSET 0 0.000000 0.000000
CHANNELS 3 Zrotation Xrotation Yrotation
									End Site
									{
OFFSET 0 -0.540080 0.540080
									}
								}
							}
						}
					}
				}
				JOINT RightCollar
				{
					OFFSET 0 0 0
					CHANNELS 3 Zrotation Yrotation Xrotation
					JOINT RightShoulder
					{
						OFFSET -3.31725 1.61216 0.35156
CHANNELS 3 Zrotation Xrotation Yrotation
						JOINT RightElbow
						{
OFFSET 0 -4.489130 0.000000
CHANNELS 3 Zrotation Xrotation Yrotation
							JOINT RightWrist
							{
OFFSET 0 -3.705100 0.000000
CHANNELS 3 Zrotation Xrotation Yrotation
								JOINT rhand
								{
									OFFSET 0 0 0
CHANNELS 3 Zrotation Xrotation Yrotation
									JOINT RFingers
									{
OFFSET 0 -0.449140 0.000000
CHANNELS 3 Zrotation Xrotation Yrotation
										End Site
										{
OFFSET 0 -0.362110 0.000000
										}
									}
								}
								JOINT RThumb
								{
OFFSET 0 0.000000 0.000000
CHANNELS 3 Zrotation Xrotation Yrotation
									End Site
									{
OFFSET 0 -0.367630 0.367630
									}
								}
							}
						}
					}
				}
			}
		}
	}
}
MOTION
Frames: 7
Frame Time: 0.008333333333333333
-0.689500 18.668200 5.566300 -2.268900 -2.608900 -0.385000 0.000000 0.000000 0.000000 -11.937000 -4.597000 -2.288900 1.403000 7.492500 21.183000 1.449800 4.052900 -24.519500 7.913400 -16.055200 -52.250100 0.000000 0.000000 0.000000 15.696200 -2.878900 7.372200 0.000000 -0.000000 0.000000 -0.590800 -2.767200 -15.787800 -0.022300 0.963300 -2.647900 -0.061300 0.576000 5.884000 0.088000 0.769600 -2.359300 0.042900 0.384000 -5.756500 -1.089800 -2.533200 -12.043200 3.590900 -4.282500 24.645500 0.922700 -1.688700 9.906000 -0.000000 -0.000000 0.000000 -0.599500 13.087600 -26.258400 21.621800 -32.547000 6.381200 9.483000 8.889500 26.867800 0.000000 0.000000 0.000000 -7.125000 0.000000 0.000000 -12.280000 3.323100 -11.826800 -0.000000 -0.000000 0.000000 -0.435500 19.426900 25.899100 -25.307200 -36.516300 -8.472000 -1.222000 21.507800 35.481600 0.000000 0.000000 0.000000 7.125000 0.000000 -0.000000 37.896000 61.321100 -16.361000
-0.685022 18.666809 5.565598 -2.324961 -2.536409 -0.446875 0.000000 0.000000 0.000000 -11.935332 -4.709685 -2.301754 1.421738 7.540342 21.326228 1.445867 4.390310 -24.666514 8.026355 -16.138621 -52.657620 0.000000 0.000000 0.000000 15.727073 -2.971115 7.434346 0.000000 0.000000 0.000000 -0.593892 -2.715574 -15.795400 -0.021695 0.951785 -2.616084 0.070587 0.595366 5.899340 0.087594 0.806066 -2.324018 -0.035344 0.397205 -5.726416 -1.087277 -2.542722 -12.011914 3.553566 -4.286872 24.662458 0.909189 -1.694620 9.905179 0.000000 0.000000 0.000000 -0.651115 13.089342 -26.219811 21.659493 -32.590133 6.401480 9.409062 8.892657 27.021891 0.000000 0.000000 0.000000 -7.125000 0.000000 0.000000 -12.329637 3.180600 -11.909899 0.000000 0.000000 0.000000 -0.456110 19.427882 25.805253 -25.296420 -36.505421 -8.465572 -1.327185 21.494688 35.757580 0.000000 0.000000 0.000000 7.125000 0.000000 0.000000 38.110215 61.563628 -16.689360
-0.682913 18.664315 5.568673 -2.386076 -2.552351 -0.507869 0.000000 0.000000 0.000000 -11.870233 -4.645432 -2.294177 1.432627 7.568110 21.409632 1.443672 4.446363 -24.679576 8.065157 -16.167003 -52.796953 0.000000 0.000000 0.000000 15.764891 -2.975669 7.512557 0.000000 0.000000 0.000000 -0.589030 -2.744331 -15.753757 -0.024792 1.016121 -2.793208 0.143651 0.654299 5.793795 0.104513 0.891262 -2.244736 -0.065965 0.437298 -5.582084 -1.261054 -2.548178 -12.114980 3.819326 -4.327819 24.752740 1.025593 -1.696498 9.969337 0.000000 0.000000 0.000000 -0.626878 13.078542 -26.463943 21.727440 -32.667645 6.438122 9.179792 8.788169 26.932917 0.000000 0.000000 0.000000 -7.125000 0.000000 0.000000 -12.462092 3.294245 -12.017794 0.000000 0.000000 0.000000 -0.507614 19.335893 25.649479 -25.224771 -36.432879 -8.423097 -0.790553 21.340394 36.455119 0.000000 0.000000 0.000000 7.125000 0.000000 0.000000 39.454446 61.969979 -17.762773
-0.679548 18.659473 5.571467 -2.391513 -2.761325 -0.674036 0.000000 0.000000 0.000000 -11.882644 -4.439171 -2.142739 1.440305 7.587357 21.467769 1.456435 4.458547 -24.783541 8.132846 -16.216057 -53.039701 0.000000 0.000000 0.000000 15.730436 -2.824631 7.753924 0.000000 0.000000 0.000000 -0.595900 -2.633598 -15.774742 -0.018935 0.888616 -2.442344 0.152748 0.760558 5.827799 0.124920 1.035012 -2.173264 -0.064838 0.508501 -5.526538 -1.382051 -2.558860 -12.253900 3.937625 -4.351937 24.886157 1.083445 -1.701232 10.050611 0.000000 0.000000 0.000000 -0.735403 13.107228 -26.436628 21.739609 -32.681498 6.444674 9.109726 8.791220 26.790214 0.000000 0.000000 0.000000 -7.125000 0.000000 0.000000 -12.498620 3.441968 -12.020036 0.000000 0.000000 0.000000 -0.643169 19.281211 25.620308 -25.161968 -36.369078 -8.385738 -1.236250 21.579303 35.920867 0.000000 0.000000 0.000000 7.125000 0.000000 0.000000 38.388373 61.668479 -16.927536
-0.673314 18.656423 5.573860 -2.441288 -2.960581 -0.706551 0.000000 0.000000 0.000000 -11.870461 -4.387484 -2.081036 1.448066 7.606863 21.526188 1.472140 4.551364 -24.952458 8.146417 -16.225913 -53.088367 0.000000 0.000000 0.000000 15.747292 -2.645392 7.859406 0.000000 0.000000 0.000000 -0.601863 -2.509300 -15.778328 -0.022807 0.974857 -2.679634 0.199447 0.822338 5.721165 0.166329 1.123161 -2.166150 -0.055620 0.551426 -5.458053 -1.341881 -2.528954 -12.282301 3.894564 -4.311061 24.959673 1.066517 -1.681920 10.079353 0.000000 0.000000 0.000000 -0.928824 13.217786 -26.141692 21.731786 -32.672593 6.440405 8.976997 8.940919 26.844828 0.000000 0.000000 0.000000 -7.125000 0.000000 0.000000 -12.579214 3.403528 -12.110553 0.000000 0.000000 0.000000 -0.754425 19.232335 25.642840 -25.154643 -36.361640 -8.381407 -1.134458 21.476246 35.991730 0.000000 0.000000 0.000000 7.125000 0.000000 0.000000 38.570198 61.698185 -17.048576
-0.668675 18.655525 5.577812 -2.468674 -3.105975 -0.646360 0.000000 0.000000 0.000000 -11.864476 -4.407359 -2.117757 1.456729 7.628474 21.591223 1.489662 4.642690 -25.133916 8.172932 -16.244991 -53.183176 0.000000 0.000000 0.000000 15.750929 -2.491734 7.856883 0.000000 0.000000 0.000000 -0.605579 -2.328600 -15.726879 -0.013113 0.738551 -2.029667 0.219700 0.837630 5.539772 0.183491 1.145409 -2.197203 -0.048818 0.562329 -5.387177 -1.219397 -2.527505 -12.239392 3.765164 -4.301664 24.908747 1.001765 -1.682405 10.046392 0.000000 0.000000 0.000000 -1.042084 13.396005 -25.846502 21.744378 -32.686961 6.447253 8.873877 9.168809 26.896138 0.000000 0.000000 0.000000 -7.125000 0.000000 0.000000 -12.642140 3.365021 -12.183474 0.000000 0.000000 0.000000 -0.804819 19.162132 25.671601 -25.164925 -36.372025 -8.387513 -1.215281 21.521175 35.756234 0.000000 0.000000 0.000000 7.125000 0.000000 0.000000 38.217734 61.534768 -16.718081
-0.666255 18.655190 5.582375 -2.555297 -3.209747 -0.581258 0.000000 0.000000 0.000000 -11.765049 -4.345688 -2.166843 1.458225 7.632460 21.603175 1.502735 4.587986 -25.202930 8.185489 -16.253964 -53.228021 0.000000 0.000000 0.000000 15.838957 -2.379919 7.836221 0.000000 0.000000 0.000000 -0.617665 -2.192687 -15.800576 -0.005620 0.484498 -1.331307 0.270107 0.803681 5.383646 0.210370 1.104947 -2.249347 -0.042994 0.541166 -5.352371 -1.200054 -2.513090 -12.159665 3.782967 -4.288789 24.851383 1.007004 -1.675095 10.010047 0.000000 0.000000 0.000000 -1.260959 13.346365 -25.016944 21.423998 -32.319850 6.275122 9.059758 9.751419 27.175143 0.000000 0.000000 0.000000 -7.125000 0.000000 0.000000 -12.541984 3.070738 -12.151287 0.000000 0.000000 0.000000 -0.793797 19.129379 25.698815 -25.222736 -36.430801 -8.421858 -1.149184 21.545586 35.810311 0.000000 0.000000 0.000000 7.125000 0.000000 0.000000 38.344402 61.560379 -16.806327
